<?xml version="1.0" encoding="iso-8859-1"?>
<!-- Uploaded to: SVG Repo, www.svgrepo.com, Generator: SVG Repo Mixer Tools -->
<svg fill="#000000" height="800px" width="800px" version="1.1" id="Layer_1" xmlns="http://www.w3.org/2000/svg" xmlns:xlink="http://www.w3.org/1999/xlink" 
	 viewBox="0 0 511.947 511.947" xml:space="preserve">
<g>
	<g>
		<path d="M211.76,256.027l195.733-195.52c4.16-4.16,4.16-10.88,0-15.04L365.147,3.12c-4.16-4.16-10.88-4.16-15.04,0
			L104.453,248.453c-4.16,4.16-4.16,10.88,0,15.04l245.653,245.333c4.16,4.16,10.88,4.16,15.04,0l42.347-42.24
			c4.16-4.16,4.16-10.88,0-15.04L211.76,256.027z M357.573,486.213L127.067,256.027L357.573,25.733l27.307,27.2L189.04,248.347
			c-4.16,4.16-4.16,10.88,0,15.04l195.733,195.52L357.573,486.213z"/>
	</g>
</g>
</svg>